G04 ================== begin FILE IDENTIFICATION RECORD ==================*
G04 Layout Name:  C:/Users/lices/Desktop/M2TOSATA/LAYOUT/M2TOSATA.brd*
G04 Film Name:    BOTTOM*
G04 File Format:  Gerber RS274X*
G04 File Origin:  Cadence Allegro -unreleased*
G04 Origin Date:  Wed Aug  5 16:03:18 2020*
G04 *
G04 Layer:  ETCH/BOTTOM*
G04 Layer:  PIN/BOTTOM*
G04 Layer:  VIA CLASS/BOTTOM*
G04 *
G04 Offset:    (0.0000 0.0000)*
G04 Mirror:    No*
G04 Mode:      Positive*
G04 Rotation:  0*
G04 FullContactRelief:  No*
G04 UndefLineWidth:     0.1000*
G04 ================== end FILE IDENTIFICATION RECORD ====================*
%FSLAX25Y25*MOIN*%
%IR0*IPPOS*OFA0.00000B0.00000*MIA0B0*SFA1.00000B1.00000*%
%ADD10O,.011811X.066929*%
%ADD12C,.024*%
%ADD13O,.03937X.11811*%
%ADD14C,.03937*%
%ADD11O,.011811X.03937*%
%ADD15C,.007874*%
G75*
%LPD*%
G75*
G36*
G01X5906Y11811D02*
X17323D01*
Y6576D01*
X17306Y6537D01*
G03X17216Y6102I1001J-435D01*
G01Y3346D01*
G03X17306Y2911I1091J0D01*
G01X17323Y2873D01*
Y2363D01*
X13774D01*
G02X13406Y2919I0J400D01*
G03X13493Y3346I-1004J427D01*
G01Y6102D01*
G03X11310I-1091J0D01*
G01Y3346D01*
G03X11397Y2919I1091J0D01*
G02X11029Y2363I-368J-157D01*
G01X7087D01*
G02X5906Y3543I0J1181D01*
G01Y11811D01*
G37*
G36*
G01X7087Y35433D02*
X17812D01*
G02X18209Y34981I0J-400D01*
G03X18200Y34843I1082J-140D01*
G01Y32087D01*
G03X18504Y31331I1091J0D01*
G01Y29921D01*
X5906D01*
Y34252D01*
G02X7087Y35433I1181J0D01*
G37*
G36*
G01X80315Y12598D02*
X93700D01*
Y3543D01*
G02X92520Y2363I-1181J0D01*
G01X86609D01*
G02X86241Y2919I0J400D01*
G03X86328Y3346I-1004J427D01*
G01Y6102D01*
G03X84145I-1091J0D01*
G01Y3346D01*
G03X84232Y2919I1091J0D01*
G02X83864Y2363I-368J-157D01*
G01X80315D01*
Y2873D01*
X80331Y2911D01*
G03X80422Y3346I-1001J435D01*
G01Y6102D01*
G03X80331Y6537I-1091J0D01*
G01X80315Y6576D01*
Y12598D01*
G37*
G36*
G01X81496Y35433D02*
X92520D01*
G02X93700Y34252I0J-1181D01*
G01Y29134D01*
X87289D01*
X85475Y30948D01*
G03X84843Y31209I-632J-633D01*
G01X81496D01*
Y35433D01*
G37*
G54D10*
X6890Y7874D03*
X90551D03*
G54D11*
X26181Y4724D03*
X24213D03*
X22244D03*
X20276D03*
X18307D03*
X16339D03*
X14370D03*
X12402D03*
X30118D03*
X28150D03*
X17323Y33465D03*
X15354D03*
X27165D03*
X19291D03*
X13386D03*
X25197D03*
X23228D03*
X21260D03*
X31102D03*
X29134D03*
X32087Y4724D03*
X45866D03*
X43898D03*
X41929D03*
X39961D03*
X37992D03*
X36024D03*
X34055D03*
X59646D03*
X57677D03*
X55709D03*
X53740D03*
X51772D03*
X49803D03*
X47835D03*
X35039Y33465D03*
X46850D03*
X44882D03*
X58661D03*
X56693D03*
X37008D03*
X48819D03*
X33071D03*
X42913D03*
X40945D03*
X38976D03*
X54724D03*
X52756D03*
X50787D03*
X60630D03*
X61614Y4724D03*
X65551D03*
X63583D03*
X75394D03*
X77362D03*
X79331D03*
X81299D03*
X83268D03*
X85236D03*
X66535Y33465D03*
X76378D03*
X78346D03*
X80315D03*
X82283D03*
X84252D03*
X64567D03*
X62598D03*
G54D12*
X30118Y8071D03*
X9180Y9449D03*
X12205D03*
X15354D03*
X25591Y11417D03*
X10630Y31890D03*
X7874Y33465D03*
X25197Y23622D03*
X18219Y19685D03*
X22047D03*
X25591Y14567D03*
X31496Y23622D03*
X36024Y9449D03*
X41929Y9574D03*
X47835D03*
X53740Y8465D03*
X59646D03*
X40157Y25984D03*
X49606Y24087D03*
X59055Y24016D03*
X61659Y14326D03*
X41918Y15910D03*
X37008Y29528D03*
X57831Y14326D03*
X41732Y19291D03*
X87402Y10236D03*
X83071D03*
X72047Y4724D03*
X88189Y4331D03*
X91339Y32283D03*
X87795D03*
Y19980D03*
X68504Y23228D03*
X71063Y15157D03*
X67235D03*
X87795Y23327D03*
G54D13*
X7874Y22835D03*
X82677D03*
G54D14*
X13780Y14961D03*
X76772D03*
G54D15*
G01X30118Y4724D02*
Y8071D01*
G01X32087Y4724D02*
X32283Y4921D01*
Y10827D01*
X30618Y12492D01*
X26665D01*
X25591Y11417D01*
G01X34055Y4724D02*
X33571Y5209D01*
Y11360D01*
X31152Y13780D01*
X26378D01*
X25591Y14567D01*
G01X53740Y4724D02*
Y8465D01*
G01X59646Y4724D02*
Y8465D01*
G01X36024Y4724D02*
Y9449D01*
G01X47835Y4724D02*
Y9574D01*
G01X41929Y4724D02*
Y9574D01*
G01X61659Y14326D02*
Y14626D01*
X60539Y15746D01*
Y18644D01*
X57923Y21260D01*
X48819D01*
X46654Y23425D01*
X40896D01*
X38117Y20647D01*
Y8581D01*
X37795Y8259D01*
Y4921D01*
X37992Y4724D01*
G01X41918Y15910D02*
X42752D01*
X44382Y14280D01*
Y5281D01*
X44094Y4993D01*
Y4921D01*
X43898Y4724D01*
G01X57831Y14326D02*
X59251Y15746D01*
Y18111D01*
X57390Y19972D01*
X48285D01*
X46120Y22138D01*
X41429D01*
X39405Y20113D01*
Y8589D01*
X39961Y8033D01*
Y4724D01*
G01X41732Y19291D02*
X42459D01*
X45669Y16081D01*
Y4921D01*
X45866Y4724D01*
G01X33071Y33465D02*
Y30602D01*
X31496Y29028D01*
Y23622D01*
G01X37008Y33465D02*
Y29528D01*
G01X35039Y33465D02*
Y30512D01*
X34055Y29528D01*
Y27559D01*
X35039Y26575D01*
X37787D01*
X39290Y28078D01*
X39298D01*
X41535Y30315D01*
X84843D01*
X87795Y27362D01*
Y23327D01*
G01X75394Y4724D02*
X72047D01*
G01X71063Y15157D02*
X75394Y10827D01*
X77018D01*
X78846Y8998D01*
Y5209D01*
X79331Y4724D01*
G01X77362D02*
X77559Y4921D01*
Y8465D01*
X76484Y9539D01*
X74860D01*
X71604Y12795D01*
X68776D01*
X67235Y14337D01*
Y15157D01*
M02*
