G04 ================== begin FILE IDENTIFICATION RECORD ==================*
G04 Layout Name:  C:/Users/lices/Desktop/M2TOSATA/LAYOUT/M2TOSATA.brd*
G04 Film Name:    GND*
G04 File Format:  Gerber RS274X*
G04 File Origin:  Cadence Allegro -unreleased*
G04 Origin Date:  Wed Aug  5 16:03:18 2020*
G04 *
G04 Layer:  ETCH/GND*
G04 Layer:  PIN/GND*
G04 Layer:  VIA CLASS/GND*
G04 *
G04 Offset:    (0.0000 0.0000)*
G04 Mirror:    No*
G04 Mode:      Positive*
G04 Rotation:  0*
G04 FullContactRelief:  No*
G04 UndefLineWidth:     0.1000*
G04 ================== end FILE IDENTIFICATION RECORD ====================*
%FSLAX25Y25*MOIN*%
%IR0*IPPOS*OFA0.00000B0.00000*MIA0B0*SFA1.00000B1.00000*%
%ADD10C,.024*%
%ADD11O,.03937X.11811*%
%ADD12C,.007874*%
%ADD13C,.034016*%
%ADD14C,.055386*%
G75*
%LPD*%
G75*
G36*
G01X9272Y35433D02*
X92520D01*
G02X93700Y34252I0J-1181D01*
G01Y3543D01*
G02X92520Y2363I-1181J0D01*
G01X7087D01*
G02X5906Y3543I0J1181D01*
G01Y32067D01*
G02X6604Y32333I400J0D01*
G03X7874Y31764I1270J1132D01*
G03X8437Y31859I0J1701D01*
G02X8961Y31560I132J-377D01*
G03X10630Y30189I1669J330D01*
G03Y33591I0J1701D01*
G03X10067Y33495I0J-1701D01*
G02X9543Y33794I-132J377D01*
G03X9006Y34734I-1669J-330D01*
G02X9272Y35433I266J298D01*
G37*
%LPC*%
G75*
G36*
G01X89230Y31369D02*
G02X87795Y30583I-1434J914D01*
G02Y33984I0J1701D01*
G02X89230Y33198I0J-1701D01*
G03X89904I337J215D01*
G02X91339Y33984I1434J-914D01*
G02Y30583I0J-1701D01*
G02X89904Y31369I0J1701D01*
G03X89230I-337J-215D01*
G37*
G36*
G01X24465Y12692D02*
G03Y13292I-265J300D01*
G02X23890Y14567I1125J1275D01*
G02X27291I1701J0D01*
G02X26716Y13292I-1700J0D01*
G03Y12692I265J-300D01*
G02X27291Y11417I-1125J-1275D01*
G02X23890I-1701J0D01*
G02X24465Y12692I1700J0D01*
G37*
G36*
G01X40837Y17224D02*
G03X40802Y17868I-254J309D01*
G02X40031Y19291I930J1424D01*
G02X43433I1701J0D01*
G02X42813Y17978I-1700J0D01*
G03X42848Y17334I254J-309D01*
G02X43619Y15910I-930J-1424D01*
G02X40217I-1701J0D01*
G02X40837Y17224I1700J0D01*
G37*
G36*
G01X20133Y19036D02*
X20389Y19292D01*
X20372Y19394D01*
G02X20346Y19685I1676J292D01*
G02X22047Y17984I1701J0D01*
G02X21980Y17985I-4J1701D01*
G03X21564Y17586I-16J-400D01*
G01Y9081D01*
X24526Y6119D01*
X66419D01*
X68791Y8491D01*
Y13165D01*
X68204Y13752D01*
X68071Y13677D01*
G02X67235Y13457I-837J1481D01*
G02Y16858I0J1701D01*
G02X68860Y15658I0J-1701D01*
G01X68875Y15610D01*
X69206Y15279D01*
X69389Y15462D01*
X69401Y15520D01*
G02X71063Y16858I1662J-362D01*
G02X72764Y15157I0J-1701D01*
G02X71867Y13659I-1701J0D01*
G01Y7587D01*
G02X71605Y6954I-895J0D01*
G01X67955Y3304D01*
G02X67322Y3043I-632J633D01*
G01X23622D01*
G02X22989Y3304I0J895D01*
G01X18749Y7544D01*
G02X18487Y8177I633J632D01*
G01Y17588D01*
G03X18113Y17987I-400J0D01*
G02X16518Y19685I106J1698D01*
G02X19920I1701J0D01*
G02X19894Y19394I-1701J1D01*
G01X19877Y19292D01*
X20133Y19036D01*
G37*
G54D13*
X87795Y23327D03*
X31496Y23622D03*
X61659Y14326D03*
X57831D03*
X37008Y29528D03*
G54D14*
X13780Y14961D03*
X76772D03*
%LPD*%
G75*
G54D10*
X30118Y8071D03*
X9180Y9449D03*
X12205D03*
X15354D03*
X25591Y11417D03*
X10630Y31890D03*
X7874Y33465D03*
X25197Y23622D03*
X18219Y19685D03*
X22047D03*
X25591Y14567D03*
X31496Y23622D03*
X36024Y9449D03*
X41929Y9574D03*
X47835D03*
X53740Y8465D03*
X59646D03*
X40157Y25984D03*
X49606Y24087D03*
X59055Y24016D03*
X61659Y14326D03*
X41918Y15910D03*
X37008Y29528D03*
X57831Y14326D03*
X41732Y19291D03*
X87402Y10236D03*
X83071D03*
X72047Y4724D03*
X88189Y4331D03*
X91339Y32283D03*
X87795D03*
Y19980D03*
X68504Y23228D03*
X71063Y15157D03*
X67235D03*
X87795Y23327D03*
G54D11*
X7874Y22835D03*
X82677D03*
G54D12*
G01X71063Y15157D02*
X70972Y15067D01*
Y7587D01*
X67322Y3937D01*
X23622D01*
X19382Y8177D01*
Y18522D01*
X18219Y19685D01*
G01X67235Y15157D02*
X68063D01*
X69685Y13535D01*
Y8120D01*
X66789Y5224D01*
X24156D01*
X20669Y8711D01*
Y18307D01*
X22047Y19685D01*
M02*
