M48
INCH,TZ
T01C.013
T02C.03937
%
G90
T01
X87795Y23327
X41732Y19291
X57831Y14326
X37008Y29528
X31496Y23622
X25591Y14567
Y11417
X22047Y19685
X67235Y15157
X18219Y19685
X71063Y15157
X41918Y15910
X61659Y14326
X15354Y9449
X88189Y4331
X68504Y23228
X87795Y19980
X72047Y4724
X83071Y10236
X87402
X59055Y24016
X49606Y24087
X40157Y25984
X25197Y23622
X12205Y9449
X9180
X59646Y8465
X53740
X47835Y9574
X41929
X36024Y9449
X30118Y8071
X7874Y33465
X87795Y32283
X91339
X10630Y31890
T02
X13780Y14961
X76772
M30
