G04 ================== begin FILE IDENTIFICATION RECORD ==================*
G04 Layout Name:  C:/Users/lices/Desktop/M2TOSATA/LAYOUT/M2TOSATA.brd*
G04 Film Name:    SILKSCREEN_TOP*
G04 File Format:  Gerber RS274X*
G04 File Origin:  Cadence Allegro -unreleased*
G04 Origin Date:  Wed Aug  5 16:03:18 2020*
G04 *
G04 Layer:  PACKAGE GEOMETRY/SILKSCREEN_TOP*
G04 Layer:  BOARD GEOMETRY/SILKSCREEN_TOP*
G04 *
G04 Offset:    (0.0000 0.0000)*
G04 Mirror:    No*
G04 Mode:      Positive*
G04 Rotation:  0*
G04 FullContactRelief:  No*
G04 UndefLineWidth:     0.1000*
G04 ================== end FILE IDENTIFICATION RECORD ====================*
%FSLAX25Y25*MOIN*%
%IR0*IPPOS*OFA0.00000B0.00000*MIA0B0*SFA1.00000B1.00000*%
%ADD10C,.011811*%
%ADD11C,.005906*%
%ADD12C,.006299*%
G75*
%LPD*%
G75*
G54D10*
G01X12402Y2953D02*
Y7677D01*
G01X85236Y2953D02*
Y7874D01*
G54D11*
G01X15901Y21260D02*
Y24360D01*
X16898Y21776D01*
X17895Y24360D01*
Y21260D01*
G01X19270Y23843D02*
X19500Y24153D01*
X19768Y24308D01*
X20075Y24360D01*
X20458Y24257D01*
X20726Y23998D01*
X20803Y23688D01*
X20765Y23378D01*
X20611Y23120D01*
X19845Y22603D01*
X19500Y22241D01*
X19270Y21725D01*
X19193Y21260D01*
X20803D01*
G01X23405Y22913D02*
X23558Y23068D01*
X23673Y23326D01*
X23750Y23688D01*
X23673Y23998D01*
X23520Y24205D01*
X23251Y24360D01*
X22217D01*
Y21260D01*
X23481D01*
X23750Y21467D01*
X23903Y21776D01*
X23980Y22138D01*
X23903Y22500D01*
X23673Y22810D01*
X23405Y22913D01*
X22217D01*
G01X25355Y21260D02*
Y24360D01*
G01X26811D02*
X25355Y22448D01*
G01X27041Y21260D02*
X26006Y23326D01*
G01X30065Y21260D02*
X28531D01*
Y24360D01*
X30065D01*
G01X29451Y22861D02*
X28531D01*
G01X32398Y21260D02*
Y22655D01*
X31631Y24360D01*
G01X33165D02*
X32398Y22655D01*
G01X35498Y24360D02*
Y21260D01*
G01X34617Y24360D02*
X36380D01*
G01X38598Y21260D02*
X38291Y21311D01*
X38023Y21518D01*
X37793Y21828D01*
X37640Y22190D01*
X37563Y22603D01*
Y23017D01*
X37640Y23430D01*
X37793Y23792D01*
X38023Y24102D01*
X38291Y24308D01*
X38598Y24360D01*
X38905Y24308D01*
X39173Y24102D01*
X39403Y23792D01*
X39556Y23430D01*
X39633Y23017D01*
Y22603D01*
X39556Y22190D01*
X39403Y21828D01*
X39173Y21518D01*
X38905Y21311D01*
X38598Y21260D01*
G01X40740D02*
X41698Y24360D01*
X42656Y21260D01*
G01X42311Y22345D02*
X41085D01*
G01X44031Y21260D02*
Y24360D01*
X44951D01*
X45258Y24205D01*
X45488Y23843D01*
X45565Y23430D01*
X45488Y23017D01*
X45296Y22706D01*
X44951Y22552D01*
X44031D01*
G01X47131Y21260D02*
Y24360D01*
X48051D01*
X48358Y24205D01*
X48588Y23843D01*
X48665Y23430D01*
X48588Y23017D01*
X48396Y22706D01*
X48051Y22552D01*
X47131D01*
G01X50231Y24360D02*
Y21260D01*
X51765D01*
G01X54865D02*
X53331D01*
Y24360D01*
X54865D01*
G01X54251Y22861D02*
X53331D01*
G01X57198Y21260D02*
Y24360D01*
X56738Y23740D01*
G01Y21260D02*
X57658D01*
G01X59570Y23843D02*
X59800Y24153D01*
X60068Y24308D01*
X60375Y24360D01*
X60758Y24257D01*
X61026Y23998D01*
X61103Y23688D01*
X61065Y23378D01*
X60911Y23120D01*
X60145Y22603D01*
X59800Y22241D01*
X59570Y21725D01*
X59493Y21260D01*
X61103D01*
G01X62976Y22293D02*
X63896D01*
G01X63398Y22965D02*
Y21621D01*
G01X65770Y22552D02*
X66038Y22913D01*
X66268Y23120D01*
X66575Y23223D01*
X66843Y23120D01*
X67035Y22913D01*
X67188Y22603D01*
X67226Y22241D01*
X67188Y21931D01*
X67035Y21621D01*
X66805Y21363D01*
X66536Y21260D01*
X66230Y21363D01*
X65961Y21673D01*
X65808Y22138D01*
X65770Y22655D01*
X65846Y23326D01*
X65961Y23688D01*
X66153Y24050D01*
X66421Y24308D01*
X66690Y24360D01*
X66958Y24257D01*
X67150Y23998D01*
G01X68831Y21260D02*
Y24360D01*
X69751D01*
X70058Y24205D01*
X70288Y23843D01*
X70365Y23430D01*
X70288Y23017D01*
X70096Y22706D01*
X69751Y22552D01*
X68831D01*
G01X72238Y24360D02*
X73158D01*
G01X72698D02*
Y21260D01*
G01X72238D02*
X73158D01*
G01X74917D02*
Y24360D01*
X76680Y21260D01*
Y24360D01*
G01X16055Y16979D02*
Y20079D01*
X16821D01*
X17128Y19924D01*
X17358Y19717D01*
X17550Y19407D01*
X17703Y19045D01*
X17741Y18529D01*
X17703Y18012D01*
X17550Y17650D01*
X17358Y17340D01*
X17128Y17134D01*
X16821Y16979D01*
X16055D01*
G01X20765D02*
X19231D01*
Y20079D01*
X20765D01*
G01X20151Y18580D02*
X19231D01*
G01X22293Y17392D02*
X22600Y17134D01*
X22945Y16979D01*
X23251D01*
X23558Y17134D01*
X23788Y17392D01*
X23903Y17754D01*
X23826Y18115D01*
X23635Y18425D01*
X23290Y18632D01*
X22830Y18735D01*
X22561Y18942D01*
X22446Y19304D01*
X22523Y19665D01*
X22715Y19924D01*
X22983Y20079D01*
X23251D01*
X23520Y19976D01*
X23750Y19717D01*
G01X25738Y20079D02*
X26658D01*
G01X26198D02*
Y16979D01*
G01X25738D02*
X26658D01*
G01X29528Y18529D02*
X30295D01*
Y17599D01*
X30065Y17289D01*
X29796Y17082D01*
X29413Y16979D01*
X29030Y17082D01*
X28761Y17289D01*
X28531Y17599D01*
X28378Y17960D01*
X28301Y18374D01*
Y18735D01*
X28378Y19045D01*
X28531Y19407D01*
X28761Y19717D01*
X28991Y19924D01*
X29298Y20079D01*
X29567D01*
X29873Y19976D01*
X30103Y19769D01*
G01X31517Y16979D02*
Y20079D01*
X33280Y16979D01*
Y20079D01*
G01X36265Y16979D02*
X34731D01*
Y20079D01*
X36265D01*
G01X35651Y18580D02*
X34731D01*
G01X37755Y16979D02*
Y20079D01*
X38521D01*
X38828Y19924D01*
X39058Y19717D01*
X39250Y19407D01*
X39403Y19045D01*
X39441Y18529D01*
X39403Y18012D01*
X39250Y17650D01*
X39058Y17340D01*
X38828Y17134D01*
X38521Y16979D01*
X37755D01*
G01X45105Y18632D02*
X45258Y18787D01*
X45373Y19045D01*
X45450Y19407D01*
X45373Y19717D01*
X45220Y19924D01*
X44951Y20079D01*
X43917D01*
Y16979D01*
X45181D01*
X45450Y17185D01*
X45603Y17495D01*
X45680Y17857D01*
X45603Y18219D01*
X45373Y18529D01*
X45105Y18632D01*
X43917D01*
G01X47898Y16979D02*
Y18374D01*
X47131Y20079D01*
G01X48665D02*
X47898Y18374D01*
G01X53370Y16979D02*
Y20079D01*
X54826D01*
G01X54290Y18580D02*
X53370D01*
G01X56431Y16979D02*
Y20079D01*
X57390D01*
X57696Y19924D01*
X57888Y19717D01*
X57965Y19304D01*
X57888Y18891D01*
X57658Y18632D01*
X57390Y18477D01*
X56431D01*
G01X57390D02*
X57965Y16979D01*
G01X59340D02*
X60298Y20079D01*
X61256Y16979D01*
G01X60911Y18064D02*
X59685D01*
G01X62517Y16979D02*
Y20079D01*
X64280Y16979D01*
Y20079D01*
G01X67341Y19820D02*
X67111Y19976D01*
X66843Y20079D01*
X66536D01*
X66191Y19924D01*
X65923Y19665D01*
X65731Y19356D01*
X65578Y18839D01*
X65540Y18374D01*
X65617Y17909D01*
X65731Y17599D01*
X65961Y17289D01*
X66230Y17082D01*
X66498Y16979D01*
X66767D01*
X67035Y17082D01*
X67265Y17237D01*
X67456Y17444D01*
G01X69138Y20079D02*
X70058D01*
G01X69598D02*
Y16979D01*
G01X69138D02*
X70058D01*
G01X71893Y17392D02*
X72200Y17134D01*
X72545Y16979D01*
X72851D01*
X73158Y17134D01*
X73388Y17392D01*
X73503Y17754D01*
X73426Y18115D01*
X73235Y18425D01*
X72890Y18632D01*
X72430Y18735D01*
X72161Y18942D01*
X72046Y19304D01*
X72123Y19665D01*
X72315Y19924D01*
X72583Y20079D01*
X72851D01*
X73120Y19976D01*
X73350Y19717D01*
G54D12*
G01X89528Y24636D02*
X92362D01*
G01Y18671D02*
X89528D01*
G01D02*
Y24636D01*
G01X92362D02*
Y18671D01*
M02*
