G04 ================== begin FILE IDENTIFICATION RECORD ==================*
G04 Layout Name:  C:/Users/lices/Desktop/M2TOSATA/LAYOUT/M2TOSATA.brd*
G04 Film Name:    TOP*
G04 File Format:  Gerber RS274X*
G04 File Origin:  Cadence Allegro -unreleased*
G04 Origin Date:  Wed Aug  5 16:03:18 2020*
G04 *
G04 Layer:  ETCH/TOP*
G04 Layer:  PIN/TOP*
G04 Layer:  VIA CLASS/TOP*
G04 *
G04 Offset:    (0.0000 0.0000)*
G04 Mirror:    No*
G04 Mode:      Positive*
G04 Rotation:  0*
G04 FullContactRelief:  No*
G04 UndefLineWidth:     0.1000*
G04 ================== end FILE IDENTIFICATION RECORD ====================*
%FSLAX25Y25*MOIN*%
%IR0*IPPOS*OFA0.00000B0.00000*MIA0B0*SFA1.00000B1.00000*%
%ADD13O,.019685X.098425*%
%ADD10C,.024*%
%ADD11O,.03937X.11811*%
%ADD14O,.11811X.059055*%
%ADD12C,.03937*%
%ADD15O,.020472X.018307*%
%ADD16C,.007874*%
G75*
%LPD*%
G75*
G36*
G01X51509Y11417D02*
X67323D01*
Y2363D01*
X27953D01*
Y11187D01*
X50911D01*
G03X51509Y11417I0J895D01*
G37*
G36*
G01X17323Y35433D02*
Y29528D01*
X5906D01*
Y34252D01*
G02X7087Y35433I1181J0D01*
G01X17323D01*
G37*
G36*
G01X73228D02*
X92520D01*
G02X93700Y34252I0J-1181D01*
G01Y29134D01*
X83397D01*
X83370Y29142D01*
G03X82677Y29241I-693J-2370D01*
G03X81985Y29142I0J-2469D01*
G01X81957Y29134D01*
X73228D01*
Y35433D01*
G37*
G54D10*
X30118Y8071D03*
X9180Y9449D03*
X12205D03*
X15354D03*
X25591Y11417D03*
X10630Y31890D03*
X7874Y33465D03*
X25197Y23622D03*
X18219Y19685D03*
X22047D03*
X25591Y14567D03*
X31496Y23622D03*
X36024Y9449D03*
X41929Y9574D03*
X47835D03*
X53740Y8465D03*
X59646D03*
X40157Y25984D03*
X49606Y24087D03*
X59055Y24016D03*
X61659Y14326D03*
X41918Y15910D03*
X37008Y29528D03*
X57831Y14326D03*
X41732Y19291D03*
X87402Y10236D03*
X83071D03*
X72047Y4724D03*
X88189Y4331D03*
X91339Y32283D03*
X87795D03*
Y19980D03*
X68504Y23228D03*
X71063Y15157D03*
X67235D03*
X87795Y23327D03*
G54D11*
X7874Y22835D03*
X82677D03*
G54D12*
X13780Y14961D03*
X76772D03*
G54D13*
X31496Y30709D03*
X28346D03*
X25197D03*
X22047D03*
X18898D03*
X15748D03*
X59055D03*
X40157D03*
X43307D03*
X46457D03*
X49606D03*
X52756D03*
X55906D03*
X74803D03*
X71654D03*
X68504D03*
X65354D03*
X62205D03*
G54D14*
X45276Y5118D03*
G54D15*
X90945Y23327D03*
Y19980D03*
G54D16*
G01X25197Y30709D02*
Y23622D01*
G01X18898Y30709D02*
Y24894D01*
X19579Y24213D01*
Y21045D01*
X18219Y19685D01*
G01X22047Y30709D02*
Y25197D01*
X20866Y24016D01*
Y20866D01*
X22047Y19685D01*
G01X25591Y11417D02*
X26255Y12082D01*
X50911D01*
X54831Y16002D01*
Y23819D01*
X55906Y24894D01*
Y30709D01*
G01X25591Y14567D02*
X26788Y13369D01*
X50377D01*
X53543Y16535D01*
Y24016D01*
X52756Y24803D01*
Y30709D01*
G01X37008Y29528D02*
Y24213D01*
X33267Y20472D01*
X30118D01*
X28346Y22244D01*
Y30709D01*
G01X49606D02*
Y24087D01*
G01X59055Y30709D02*
Y24016D01*
G01X40157Y25984D02*
Y30709D01*
G01X41918Y15910D02*
X45185Y19178D01*
Y29326D01*
X46457Y30598D01*
Y30709D01*
G01X31496Y23622D02*
Y30709D01*
G01X57831Y14326D02*
Y15978D01*
X59372Y17520D01*
X63032D01*
X64067Y18554D01*
Y23031D01*
X62205Y24894D01*
Y30709D01*
G01X41732Y19291D02*
X43898Y21457D01*
Y29564D01*
X43307Y30155D01*
Y30709D01*
G01X90945Y19980D02*
X87795D01*
G01X68504Y30709D02*
Y23228D01*
G01X61659Y14326D02*
X65354Y18021D01*
Y30709D01*
G01X90945Y23327D02*
X87795D01*
M02*
